<?xml version="1.0" encoding="UTF-8"?>
<svg version="1.1" xmlns="http://www.w3.org/2000/svg" width="512" height="512">
<path d="M0 0 C5.34902224 1.50796903 8.32877225 8.26556719 10.89453125 12.83837891 C11.30574219 13.5916748 11.71695312 14.3449707 12.140625 15.12109375 C12.57375 15.90919434 13.006875 16.69729492 13.453125 17.50927734 C21.6661302 32.67575598 28.64658321 48.73576492 24.5859375 66.2890625 C21.78256757 72.70208132 15.47922991 76.91325816 9.203125 79.62109375 C8.213125 79.62109375 7.223125 79.62109375 6.203125 79.62109375 C6.203125 88.20109375 6.203125 96.78109375 6.203125 105.62109375 C13.21877367 105.46339914 13.21877367 105.46339914 20.2331543 105.26074219 C21.11398682 105.25075195 21.99481934 105.24076172 22.90234375 105.23046875 C23.79783936 105.20952148 24.69333496 105.18857422 25.6159668 105.16699219 C29.2292622 105.80120276 30.67648598 106.95490879 33.203125 109.62109375 C33.68056284 112.65580764 33.83812455 115.12325193 33.77075195 118.15332031 C33.77148209 119.01221863 33.77221222 119.87111694 33.77296448 120.75604248 C33.76948403 123.5919128 33.73060199 126.42613579 33.69140625 129.26171875 C33.68207974 131.22897443 33.67496286 133.19624173 33.66996765 135.16351318 C33.65088518 140.3390718 33.6017733 145.5139278 33.54644775 150.68920898 C33.48628524 156.89988688 33.46334501 163.11079984 33.43418121 169.32168579 C33.38570937 178.7553103 33.2899027 188.18739347 33.203125 197.62109375 C51.353125 197.62109375 69.503125 197.62109375 88.203125 197.62109375 C88.16832031 191.11003906 88.13351562 184.59898437 88.09765625 177.890625 C88.08232803 173.76626708 88.06788618 169.64194426 88.05664062 165.51757812 C88.03870573 158.97087309 88.01748626 152.42429391 87.97680664 145.87768555 C87.94421577 140.59979053 87.92627246 135.32203047 87.91849327 130.04404259 C87.9129493 128.03019778 87.90212333 126.01636038 87.88593483 124.00257301 C87.86416435 121.18229828 87.86115794 118.36258155 87.86254883 115.54223633 C87.84637009 114.29282509 87.84637009 114.29282509 87.8298645 113.01817322 C87.85452655 108.3981503 88.20110722 105.37415153 91.203125 101.62109375 C94.09174209 100.1767852 95.99960201 100.24420869 99.203125 100.62109375 C101.89196757 102.59969288 103.87064897 104.19153457 104.65188026 107.55062294 C104.81926552 109.92603747 104.82156485 112.25317151 104.77075195 114.6340332 C104.77148209 115.53209183 104.77221222 116.43015045 104.77296448 117.35542297 C104.76948865 120.31569393 104.73062765 123.27437987 104.69140625 126.234375 C104.68207811 128.28988282 104.674962 130.34540177 104.66996765 132.40092468 C104.65089803 137.80497046 104.60179698 143.20834184 104.54644775 148.61212158 C104.49525483 154.12869138 104.47245348 159.64537039 104.44726562 165.16210938 C104.39367867 175.98206676 104.30836584 186.80152412 104.203125 197.62109375 C104.88647919 197.68190628 105.56983337 197.74271881 106.27389526 197.80537415 C107.17205963 197.88933945 108.070224 197.97330475 108.99560547 198.05981445 C109.88520966 198.14125198 110.77481384 198.22268951 111.69137573 198.30659485 C120.1727599 199.36855833 127.88922403 204.06047814 134.203125 209.62109375 C134.80769531 210.14445313 135.41226562 210.6678125 136.03515625 211.20703125 C144.58633173 219.14341634 150.7350275 230.71694162 151.29324532 242.52788734 C151.32603663 244.86658498 151.32674598 247.20332591 151.31665039 249.54223633 C151.31679642 250.43054138 151.31694244 251.31884644 151.3170929 252.23406982 C151.31639793 255.16127999 151.308625 258.088426 151.30078125 261.015625 C151.29891559 263.04872096 151.29749239 265.08181737 151.29649353 267.11491394 C151.29267999 272.45947516 151.28285962 277.80400911 151.27178955 283.14855957 C151.26155043 288.60489533 151.25699055 294.06123552 151.25195312 299.51757812 C151.24123632 310.21876197 151.22417385 320.91992559 151.203125 331.62109375 C151.81624039 331.61338959 152.42935577 331.60568542 153.06105042 331.5977478 C154.2713517 331.58875961 154.2713517 331.58875961 155.50610352 331.57958984 C156.3048439 331.57188568 157.10358429 331.56418152 157.92652893 331.5562439 C168.35861909 331.85340663 178.92818416 338.34226172 186.390625 345.24609375 C195.87965129 355.3113767 200.72326114 367.47865141 200.54370117 381.20166016 C200.54413925 382.10044891 200.54457733 382.99923767 200.54502869 383.92526245 C200.54296019 386.85795813 200.51972183 389.79006205 200.49609375 392.72265625 C200.49049088 394.77102344 200.48622405 396.81939467 200.48323059 398.86776733 C200.47183621 404.23044141 200.44241602 409.5928675 200.40911865 414.95544434 C200.37830066 420.43901211 200.36470029 425.92262038 200.34960938 431.40625 C200.31754076 442.14463955 200.26641047 452.88284594 200.203125 463.62109375 C200.83539505 463.61443192 201.4676651 463.60777008 202.11909485 463.60090637 C208.68863855 463.53463228 215.25808759 463.48932614 221.82788086 463.45629883 C224.28104508 463.44119494 226.73418224 463.42071054 229.18725586 463.39477539 C232.70954055 463.35846318 236.23146881 463.34138339 239.75390625 463.328125 C240.85398514 463.31264114 241.95406403 463.29715729 243.08747864 463.28120422 C244.61872627 463.28086433 244.61872627 463.28086433 246.1809082 463.28051758 C247.08025589 463.27385574 247.97960358 463.26719391 248.90620422 463.2603302 C251.68397118 463.69661737 252.56152573 464.36917774 254.203125 466.62109375 C255.81653229 477.66784638 253.49264076 487.51195083 246.890625 496.43359375 C240.40634573 504.14054432 232.35846107 510.66427835 222.203125 512.62109375 C219.70763965 512.7168482 217.24037292 512.7605653 214.74507809 512.75531483 C213.98736686 512.75766706 213.22965563 512.76001929 212.44898346 512.7624428 C209.89541295 512.76913015 207.34189335 512.76867465 204.78831482 512.76826477 C202.94479087 512.77156356 201.10126763 512.77528916 199.25774533 512.77940625 C194.18011332 512.78943267 189.10249314 512.79314408 184.02485263 512.79579556 C178.55294534 512.79969671 173.08104743 512.80927519 167.60914612 512.81800842 C154.38854783 512.83777833 141.16794876 512.84783978 127.94733939 512.85673621 C121.72302599 512.86111831 115.49871344 512.86648533 109.27440071 512.87172508 C88.58583347 512.888738 67.89726668 512.90325728 47.2086935 512.91047382 C45.87073171 512.91094858 44.53276992 512.91142447 43.19480813 512.91190149 C42.53130334 512.91213786 41.86779854 512.91237424 41.18418755 512.91261778 C37.8225801 512.91381897 34.46097267 512.91503442 31.09936523 512.91625977 C30.4322456 512.91649992 29.76512597 512.91674007 29.07779059 512.91698749 C7.45257346 512.92487883 -14.17258879 512.94830706 -35.79778196 512.98081571 C-58.66445985 513.01512784 -81.53111379 513.03482513 -104.39781898 513.03811806 C-116.86135819 513.04028389 -129.32481676 513.04904319 -141.78833199 513.07457924 C-152.40240788 513.09627567 -163.01638355 513.10434183 -173.6304791 513.09461246 C-179.04548553 513.09006472 -184.4602851 513.09198177 -189.87526321 513.1113739 C-194.83554756 513.12898417 -199.79547381 513.12802501 -204.75576185 513.11247661 C-206.54721677 513.11009731 -208.33869634 513.11444077 -210.13011355 513.12630526 C-225.41195697 513.22122157 -236.24754059 510.8441411 -247.51171875 499.96484375 C-254.52739652 492.39576646 -257.91815727 483.7594738 -258.046875 473.55859375 C-258.07265625 472.33011719 -258.0984375 471.10164063 -258.125 469.8359375 C-257.796875 466.62109375 -257.796875 466.62109375 -256.59025574 464.94145203 C-254.20236244 463.18338994 -252.72499246 463.25866325 -249.7746582 463.28051758 C-248.75382645 463.28074417 -247.73299469 463.28097076 -246.68122864 463.28120422 C-245.03111031 463.30443001 -245.03111031 463.30443001 -243.34765625 463.328125 C-241.65602608 463.33449226 -241.65602608 463.33449226 -239.93022156 463.34098816 C-236.32303133 463.35780064 -232.71639678 463.39545847 -229.109375 463.43359375 C-226.66602368 463.44863722 -224.22266363 463.46232621 -221.77929688 463.47460938 C-215.78496618 463.50771259 -209.79096029 463.55793782 -203.796875 463.62109375 C-203.80575745 462.49515808 -203.81463989 461.36922241 -203.8237915 460.20916748 C-203.90514861 449.5584736 -203.96497012 438.90784341 -204.00412369 428.25690842 C-204.02493018 422.78214234 -204.05312031 417.30762867 -204.09863281 411.83300781 C-204.14233892 406.542102 -204.16606419 401.25143781 -204.17638397 395.9603653 C-204.18373109 393.949498 -204.19807746 391.93864277 -204.21979523 389.92787933 C-204.40214266 372.3330297 -201.92755475 358.36100279 -189.609375 344.87109375 C-181.38700201 337.20179518 -170.48090057 331.52834113 -159.1315918 331.59545898 C-157.91441719 331.60101051 -157.91441719 331.60101051 -156.6726532 331.60667419 C-156.05364639 331.61143265 -155.43463959 331.6161911 -154.796875 331.62109375 C-154.80686775 329.95098236 -154.80686775 329.95098236 -154.81706238 328.24713135 C-154.87808436 317.71414116 -154.92294846 307.18118721 -154.95231152 296.64805984 C-154.96791522 291.23388506 -154.98905607 285.81985388 -155.02319336 280.40576172 C-155.05597651 275.17322137 -155.07376777 269.94081848 -155.08150673 264.70818329 C-155.08701638 262.71966135 -155.09777469 260.73114626 -155.11406517 258.74268341 C-155.26104436 240.04509312 -153.36025249 225.98921358 -140.109375 211.91015625 C-132.45227035 204.33065739 -123.48428689 199.05717522 -112.58935547 198.05981445 C-111.6911911 197.97584915 -110.79302673 197.89188385 -109.86764526 197.80537415 C-108.84261398 197.71415535 -108.84261398 197.71415535 -107.796875 197.62109375 C-107.79964038 196.87748974 -107.80240576 196.13388573 -107.80525494 195.36774826 C-107.87148001 177.28231768 -107.92113863 159.19691127 -107.95231152 141.11138535 C-107.9677868 132.36539101 -107.98888893 123.61947757 -108.02319336 114.87353516 C-108.0530755 107.25143164 -108.07244519 99.62938669 -108.07914048 92.00722623 C-108.08305477 87.97055133 -108.09226751 83.93404403 -108.11406517 79.89742279 C-108.13441167 76.09879729 -108.14071257 72.30040859 -108.13619804 68.50173378 C-108.13702407 67.10692623 -108.14300082 65.71211085 -108.15449142 64.31735039 C-108.16940486 62.41391591 -108.16404379 60.51035468 -108.15763855 58.60687256 C-108.16040393 57.54127987 -108.16316931 56.47568718 -108.16601849 55.3778038 C-107.74418643 52.22762317 -107.00783943 50.87384933 -104.796875 48.62109375 C-100.99907657 47.35516094 -99.25102617 47.44971595 -95.484375 48.87109375 C-92.796875 50.62109375 -92.796875 50.62109375 -91.796875 53.62109375 C-91.70565802 55.56188502 -91.67492951 57.50572123 -91.67662048 59.44865417 C-91.67455849 61.27229744 -91.67455849 61.27229744 -91.67245483 63.13278198 C-91.67599396 64.48199487 -91.67962876 65.83120752 -91.68334961 67.18041992 C-91.68363165 68.59956358 -91.68347342 70.01870738 -91.6829071 71.43785095 C-91.68261978 75.292935 -91.68850606 79.14798804 -91.69548106 83.00306487 C-91.70172537 87.03095706 -91.70231925 91.05884993 -91.70350647 95.08674622 C-91.7066166 102.71525253 -91.71482572 110.34374455 -91.72485596 117.97224456 C-91.73602695 126.65654838 -91.74153004 135.34085288 -91.74655139 144.0251621 C-91.75700858 161.89048241 -91.77535013 179.75578311 -91.796875 197.62109375 C-73.646875 197.62109375 -55.496875 197.62109375 -36.796875 197.62109375 C-36.88388672 188.16195312 -36.88388672 188.16195312 -36.97265625 178.51171875 C-36.99820044 174.51950557 -37.0222697 170.52739298 -37.04101562 166.53515625 C-37.07091918 160.19672757 -37.10631523 153.85865959 -37.17407227 147.52050781 C-37.22835176 142.41117142 -37.25828714 137.30222176 -37.27126122 132.19261932 C-37.28050837 130.24210266 -37.29856592 128.29160745 -37.32552528 126.34125519 C-37.36176188 123.61147633 -37.36682266 120.88330052 -37.36450195 118.15332031 C-37.39146652 116.94059448 -37.39146652 116.94059448 -37.41897583 115.70336914 C-37.38272814 111.76949894 -37.17629401 110.02146802 -34.4230957 107.11621094 C-31.48023974 105.44083212 -29.8552869 105.15189113 -26.49609375 105.23046875 C-25.61526123 105.24045898 -24.73442871 105.25044922 -23.8269043 105.26074219 C-22.72386963 105.2971582 -21.62083496 105.33357422 -20.484375 105.37109375 C-16.9575 105.45359375 -13.430625 105.53609375 -9.796875 105.62109375 C-9.796875 97.04109375 -9.796875 88.46109375 -9.796875 79.62109375 C-11.446875 79.29109375 -13.096875 78.96109375 -14.796875 78.62109375 C-20.35389192 75.74418955 -25.16403746 72.41333634 -27.796875 66.62109375 C-33.06106729 46.52896714 -23.5436157 28.55267637 -13.86328125 11.42236328 C-7.499113 0.67263036 -7.499113 0.67263036 0 0 Z " fill="#070706" transform="translate(257.796875,-0.62109375)"/>
<path d="M0 0 C0.88657646 -0.00367669 1.77315291 -0.00735338 2.68659532 -0.01114148 C5.66349574 -0.02217256 8.64036125 -0.0260212 11.61727905 -0.02983093 C13.74940095 -0.03609605 15.88152175 -0.04274289 18.01364136 -0.04974365 C25.02132406 -0.07078172 32.02900697 -0.08114618 39.03671265 -0.09111023 C41.44979234 -0.09515796 43.86287192 -0.09927488 46.27595139 -0.10346031 C57.61355269 -0.12251185 68.9511475 -0.13674266 80.28876173 -0.14507228 C93.3720353 -0.1548433 106.45513963 -0.1811596 119.53835356 -0.22157317 C129.65315793 -0.25174416 139.76791382 -0.26654212 149.88276231 -0.26985329 C155.92271773 -0.27220275 161.96249233 -0.28114989 168.00239944 -0.30631447 C173.68726509 -0.32961701 179.37183113 -0.33381946 185.05673218 -0.32355309 C187.13919446 -0.32305814 189.2216716 -0.32936627 191.30408859 -0.34310913 C211.41013122 -0.4683362 211.41013122 -0.4683362 219.31015015 4.14717102 C220.85702515 4.98248352 220.85702515 4.98248352 222.43515015 5.83467102 C229.1895378 11.26754805 234.91626553 17.66126281 237.31015015 26.14717102 C237.43515015 29.02217102 237.43515015 29.02217102 236.31015015 31.14717102 C234.33981589 32.20442355 232.33171719 33.19152114 230.31015015 34.14717102 C223.64855628 38.93130982 219.4396724 44.89958709 215.12265015 51.77217102 C205.9021105 66.28318424 205.9021105 66.28318424 200.31015015 68.14717102 C193.69781687 69.04375858 193.69781687 69.04375858 190.3543396 66.88349915 C185.3402995 62.45587795 181.71097866 57.81130524 178.18515015 52.14717102 C171.66827989 41.84463874 166.28625945 34.27485918 154.31015015 30.14717102 C145.9309125 28.66599265 139.27222983 30.37113684 132.31015015 35.14717102 C125.23825643 40.3183186 121.07357992 47.93846499 116.69735718 55.35664368 C113.38144773 60.878716 110.21648657 65.19400281 104.31015015 68.14717102 C102.3921814 68.45576477 102.3921814 68.45576477 100.12265015 68.58467102 C99.38659546 68.64525696 98.65054077 68.7058429 97.8921814 68.76826477 C91.44201254 67.21671129 87.54301527 61.46529845 84.24105835 56.08149719 C83.81010864 55.36066956 83.37915894 54.63984192 82.93515015 53.89717102 C76.12203129 42.99265985 69.96388259 34.36508184 57.31015015 30.14717102 C48.08805494 29.2249615 41.59502044 30.976367 34.18515015 36.45967102 C31.94919083 39.10520292 31.94919083 39.10520292 32.37265015 42.83467102 C33.03280873 46.19504384 33.03280873 46.19504384 35.31015015 48.14717102 C39.60583264 48.64282669 41.66814469 48.57517466 45.31015015 46.14717102 C49.0374705 43.66229078 50.90605427 43.51801447 55.31015015 44.14717102 C63.03558287 48.08871833 67.24984093 54.94225551 71.74765015 62.08467102 C77.40883981 71.01319599 82.65267791 78.98617926 93.31015015 82.14717102 C102.27210983 83.40246273 109.93913381 82.60094585 117.31015015 77.14717102 C123.64549373 71.65160007 127.91448226 64.38867238 132.19076538 57.26338196 C135.55112252 51.80819983 139.47862208 47.06293505 145.31015015 44.14717102 C147.2984314 44.12763977 147.2984314 44.12763977 149.62265015 44.33467102 C150.38190796 44.39010071 151.14116577 44.4455304 151.9234314 44.50263977 C158.01279044 46.1470657 160.95008115 51.19492438 164.12265015 56.20967102 C165.00155552 57.55427361 165.88177668 58.89801699 166.76327515 60.24092102 C167.61227622 61.54297648 168.46123684 62.84505833 169.31015015 64.14717102 C174.645367 72.28831673 179.78116841 78.97084377 189.31015015 82.14717102 C198.23728809 82.89645118 206.13538734 83.14812153 213.31015015 77.14717102 C219.24175937 71.92944798 223.34708219 65.91094478 227.56015015 59.27217102 C228.76614631 57.37412642 229.97934508 55.48063305 231.20077515 53.59248352 C231.99016479 52.34749084 231.99016479 52.34749084 232.79550171 51.0773468 C234.31015015 49.14717102 234.31015015 49.14717102 237.31015015 48.14717102 C237.31015015 71.57717102 237.31015015 95.00717102 237.31015015 119.14717102 C146.89015015 119.14717102 56.47015015 119.14717102 -36.68984985 119.14717102 C-36.68984985 95.71717102 -36.68984985 72.28717102 -36.68984985 48.14717102 C-32.47358717 49.55259191 -31.15480174 52.61802441 -28.87734985 56.20967102 C-27.98308495 57.58439049 -27.08726226 58.95809791 -26.18984985 60.33076477 C-25.75930298 60.9918927 -25.3287561 61.65302063 -24.88516235 62.33418274 C-19.49225165 70.51387124 -13.34851848 78.92761481 -3.68984985 82.14717102 C7.62341312 83.09672547 14.46261308 81.80133317 23.37265015 74.70967102 C25.5264116 72.2598333 25.5264116 72.2598333 25.87265015 69.08467102 C25.18032792 65.46921053 24.30963623 64.254918 21.31015015 62.14717102 C18.36214924 61.79360203 16.86938251 61.76525623 14.38827515 63.45967102 C13.7849939 64.01654602 13.18171265 64.57342102 12.56015015 65.14717102 C8.94557095 67.99399186 6.29993135 69.20191388 1.66220093 68.75068665 C-6.01978019 66.77955759 -10.88182779 58.46544905 -14.81484985 52.14717102 C-21.81640803 40.8632733 -21.81640803 40.8632733 -32.06484985 32.70967102 C-32.93883423 32.21596008 -33.8128186 31.72224915 -34.71328735 31.21357727 C-35.69168579 30.68570618 -35.69168579 30.68570618 -36.68984985 30.14717102 C-36.30056081 21.19352298 -31.08785184 13.71352367 -24.6859436 7.68232727 C-16.95971479 1.7402374 -9.53411912 -0.00211838 0 0 Z " fill="#FEF2A6" transform="translate(155.68984985351563,211.8528289794922)"/>
<path d="M0 0 C9.85845329 4.95143037 15.64278962 16.87060101 21.22851562 25.79492188 C28.36287077 36.99756695 35.68301818 46.68289641 48.921875 50.37109375 C60.91950385 51.51753384 70.57195768 49.80643508 80.0078125 42.15625 C86.61810837 35.99113732 91.19837367 28.43196149 95.921875 20.80859375 C106.72622447 3.37334291 106.72622447 3.37334291 114.921875 -0.62890625 C120.50131695 -1.40402272 125.95040184 -1.46299105 131.171875 0.74609375 C132.079375 1.61234375 132.986875 2.47859375 133.921875 3.37109375 C134.85966797 4.25667969 134.85966797 4.25667969 135.81640625 5.16015625 C141.24401474 10.69533896 145.28094426 16.84987692 149.421875 23.37109375 C156.84293964 35.02116036 164.17626598 45.78922408 177.921875 50.37109375 C189.36200677 51.29903028 199.02286812 50.62648291 208.49609375 43.41015625 C215.69250061 36.78991383 220.52178666 28.59865528 225.65966797 20.36865234 C230.49329139 12.71899919 235.55344333 5.75501016 242.921875 0.37109375 C243.251875 0.37109375 243.581875 0.37109375 243.921875 0.37109375 C243.921875 24.46109375 243.921875 48.55109375 243.921875 73.37109375 C223.109375 73.62109375 223.109375 73.62109375 216.54760742 73.66894531 C214.83249208 73.69830805 213.11740087 73.72913258 211.40234375 73.76171875 C210.0650824 73.76341064 210.0650824 73.76341064 208.70080566 73.76513672 C203.83542145 73.76657403 203.83542145 73.76657403 199.81762695 76.18261719 C198.46255377 79.49329476 199.1000424 81.95732758 199.921875 85.37109375 C203.01394569 88.46316444 206.71739711 87.67976175 210.86962891 87.68994141 C211.79651016 87.69998703 212.72339142 87.71003265 213.67835999 87.72038269 C216.75171266 87.75135162 219.8249777 87.76828782 222.8984375 87.78515625 C225.02551027 87.80385688 227.15257554 87.82342944 229.27963257 87.84384155 C234.88557523 87.89528555 240.49154197 87.93484549 246.09759521 87.97198486 C251.81512469 88.01194778 257.53255292 88.0630752 263.25 88.11328125 C274.47388734 88.21018572 285.69783168 88.29454387 296.921875 88.37109375 C293.45418519 96.61768425 290.10636936 101.83207025 281.8515625 105.64453125 C277.41301792 107.31572415 273.29909894 107.51625962 268.58597374 107.50810814 C267.46921799 107.51208588 267.46921799 107.51208588 266.32990152 107.51614398 C263.82127058 107.52383739 261.31268858 107.52439617 258.80404663 107.5249939 C256.99280822 107.52900848 255.1815707 107.5334467 253.37033427 107.53827345 C248.38198597 107.55024509 243.39364735 107.55588877 238.4052875 107.56045461 C233.02951341 107.5664084 227.6537509 107.57801875 222.27798462 107.58874512 C209.29024769 107.61327332 196.30250692 107.62789642 183.31475395 107.64080518 C179.64722779 107.64451666 175.97970201 107.64848993 172.31217623 107.65255785 C149.5430689 107.67779273 126.77396098 107.69984838 104.00484276 107.712286 C98.73027926 107.71521575 93.45571579 107.7181774 88.18115234 107.72119141 C86.87016695 107.72193746 85.55918157 107.72268351 84.20846935 107.72345217 C62.96643244 107.73610857 41.72447919 107.76933538 20.48248141 107.81099324 C-1.32015334 107.85340053 -23.12274524 107.8769796 -44.92542112 107.88220656 C-57.16929766 107.88562192 -69.41304345 107.89739202 -81.65687943 107.9303093 C-92.0832513 107.95829427 -102.50946563 107.96931587 -112.93587215 107.95811383 C-118.25561472 107.95292338 -123.57502725 107.95583947 -128.89472198 107.98057938 C-133.7668183 108.00304856 -138.63834705 108.00234992 -143.51045315 107.9833755 C-145.27093832 107.98057226 -147.0314618 107.98619205 -148.79188533 108.00118844 C-159.49291074 108.08675686 -167.96175183 107.45826951 -176.515625 100.34375 C-177.03125 99.71339844 -177.546875 99.08304687 -178.078125 98.43359375 C-178.614375 97.80582031 -179.150625 97.17804688 -179.703125 96.53125 C-181.35916785 93.92956905 -182.14373839 91.29978681 -183.078125 88.37109375 C-181.95999739 88.37019812 -181.95999739 88.37019812 -180.81928134 88.36928439 C-136.67015858 88.33341465 -92.52110434 88.27681303 -48.37204491 88.1931728 C-43.07469037 88.18315497 -37.77733553 88.1733109 -32.47998047 88.16357422 C-31.4253427 88.16163285 -30.37070492 88.15969147 -29.28410843 88.15769127 C-12.19255116 88.12664388 4.89899267 88.10968298 21.99057284 88.09789953 C39.51938294 88.08550214 57.04812236 88.05803276 74.57688785 88.01648068 C85.39892098 87.99130476 96.22083692 87.97797945 107.04289976 87.97966418 C114.45725718 87.97969386 121.87149497 87.96512477 129.28580579 87.93892947 C133.56778953 87.9242366 137.8495279 87.91612046 142.13153267 87.92529106 C146.04865978 87.93353859 149.9652925 87.92353282 153.882346 87.89875713 C155.3023161 87.89304277 156.72233259 87.89413615 158.14228907 87.9025813 C160.06709771 87.91305171 161.99199709 87.89670605 163.91675186 87.87890244 C164.98756319 87.87738355 166.05837452 87.87586467 167.16163468 87.87429976 C170.63044623 87.24191757 171.84483952 86.18378048 173.921875 83.37109375 C174.01103654 79.74459424 174.01103654 79.74459424 172.921875 76.37109375 C169.63561968 74.18025687 168.67948918 74.11892257 164.86752033 74.10938072 C163.81652851 74.10191523 162.7655367 74.09444974 161.68269664 74.08675802 C160.52415068 74.08869275 159.36560471 74.09062749 158.17195129 74.09262085 C156.94432231 74.08682845 155.71669333 74.08103605 154.45186347 74.07506812 C151.03810916 74.06097188 147.62455058 74.0558353 144.21078122 74.05441952 C140.531839 74.0507323 136.85294225 74.03558025 133.17402649 74.02180481 C126.7979918 73.99950678 120.42197324 73.98450881 114.04590797 73.97443771 C104.82713933 73.95986601 95.60842683 73.93433347 86.38969108 73.90610643 C71.4337184 73.86061095 56.47773766 73.82400755 41.52172852 73.79296875 C26.99144066 73.76279448 12.46117255 73.72844939 -2.0690918 73.68847656 C-2.9644023 73.68601501 -3.8597128 73.68355347 -4.78215393 73.68101732 C-9.27356359 73.66864294 -13.76497302 73.65618637 -18.25638235 73.64368892 C-55.53027324 73.54007986 -92.80417776 73.45252345 -130.078125 73.37109375 C-130.078125 49.28109375 -130.078125 25.19109375 -130.078125 0.37109375 C-121.01132662 5.81117278 -116.20916262 13.54505945 -110.640625 22.30859375 C-103.3517196 33.778333 -94.98410711 46.6374328 -81.078125 50.37109375 C-70.57944256 51.45343215 -61.35054648 50.89738234 -52.56640625 44.55859375 C-46.22881314 39.27888371 -41.71423352 33.08182872 -37.25634766 26.19042969 C-35.55538779 23.56391644 -33.82081096 20.96015296 -32.0859375 18.35595703 C-31.22912402 17.06788499 -30.37602909 15.77732869 -29.52734375 14.48388672 C-22.1934079 3.36537459 -14.3180108 -4.33308222 0 0 Z " fill="#FEF2A6" transform="translate(199.078125,389.62890625)"/>
<path d="M0 0 C1.6624254 -0.00761181 1.6624254 -0.00761181 3.35843515 -0.0153774 C4.57591991 -0.01587516 5.79340466 -0.01637292 7.0477829 -0.01688576 C8.34130346 -0.02126801 9.63482402 -0.02565027 10.96754217 -0.03016531 C14.561037 -0.04212058 18.15451842 -0.04777685 21.74802923 -0.05234647 C25.62280754 -0.05830662 29.49756984 -0.06991552 33.37233734 -0.08063698 C42.73231614 -0.10515285 52.09230024 -0.11978763 61.45230126 -0.13269705 C64.09676857 -0.13640979 66.74123535 -0.14038296 69.38570213 -0.14444971 C85.81310885 -0.16968878 102.24051641 -0.19173844 118.66793823 -0.20417786 C122.47257236 -0.20710748 126.27720646 -0.21006915 130.08184052 -0.21308327 C131.02744628 -0.21382932 131.97305205 -0.21457537 132.94731253 -0.21534403 C148.25820949 -0.22799183 163.56899018 -0.26120753 178.8798328 -0.3028851 C194.60527072 -0.34533967 210.33064917 -0.36887702 226.05614424 -0.37409842 C234.88290937 -0.37750871 243.70949283 -0.38921861 252.53620148 -0.42220116 C260.05520269 -0.45025138 267.57398498 -0.46117929 275.09303445 -0.4500057 C278.92652829 -0.44483155 282.75956407 -0.44762385 286.59299088 -0.47247124 C290.75776129 -0.49923979 294.92153101 -0.48686114 299.08635712 -0.47098732 C300.2859961 -0.48486941 301.48563508 -0.49875149 302.72162676 -0.51305425 C313.88106882 -0.40857086 323.44416731 2.95622739 331.59453583 10.75029564 C335.98766004 16.04457353 339.57500458 22.18522745 339.57500458 29.13701439 C339.02973114 29.34455345 338.4844577 29.55209251 337.92266083 29.76592064 C323.71262451 35.57138847 317.21496246 45.75175083 309.2410202 58.22344017 C297.28306037 76.91557245 297.28306037 76.91557245 287.57500458 80.13701439 C282.13249486 80.98308466 277.11744652 81.06723535 272.45000458 77.88701439 C263.97494915 70.47562988 258.04226898 60.02744436 251.99980927 50.63213158 C245.41978655 40.53558684 238.54415268 32.43390548 226.57500458 29.13701439 C214.44708045 27.86809677 205.35713122 29.18432078 195.41484833 36.78935814 C187.17055117 44.27970367 181.63536107 54.85401232 175.76250458 64.19951439 C171.26716212 71.27862845 166.90012076 77.36197566 158.57500458 80.13701439 C152.95950533 80.74544326 147.6029867 80.69712732 142.62578583 77.82451439 C135.16846303 71.68820306 130.12808969 62.51928294 125.01250458 54.44951439 C119.05362343 45.06485015 112.82732414 36.13814588 102.57500458 31.13701439 C101.85184052 30.77478783 101.12867645 30.41256126 100.38359833 30.03935814 C92.49393143 27.50456947 81.4481983 27.64342876 73.95000458 31.19951439 C71.65903865 32.5721559 71.65903865 32.5721559 69.57500458 34.13701439 C68.89566864 34.61010033 68.2163327 35.08318626 67.51641083 35.57060814 C60.05218527 41.4052172 55.25894837 49.84707538 50.28594208 57.77373314 C37.70344121 77.81622541 37.70344121 77.81622541 28.57500458 80.13701439 C23.43812491 80.72279891 19.15004326 80.84732595 14.38750458 78.69951439 C7.33863938 72.27721499 2.20121296 65.20343975 -2.92499542 57.19951439 C-11.14457761 44.38670513 -17.68186802 34.79334746 -32.42499542 29.13701439 C-32.05768145 20.68879298 -27.69785058 13.91270572 -21.54999542 8.26201439 C-14.98743837 2.93150828 -8.47508109 0.02061869 0 0 Z " fill="#F34B59" transform="translate(102.42499542236328,345.8629856109619)"/>
<path d="M0 0 C0.88657646 -0.00367669 1.77315291 -0.00735338 2.68659532 -0.01114148 C5.66349574 -0.02217256 8.64036125 -0.0260212 11.61727905 -0.02983093 C13.74940095 -0.03609605 15.88152175 -0.04274289 18.01364136 -0.04974365 C25.02132406 -0.07078172 32.02900697 -0.08114618 39.03671265 -0.09111023 C41.44979234 -0.09515796 43.86287192 -0.09927488 46.27595139 -0.10346031 C57.61355269 -0.12251185 68.9511475 -0.13674266 80.28876173 -0.14507228 C93.3720353 -0.1548433 106.45513963 -0.1811596 119.53835356 -0.22157317 C129.65315793 -0.25174416 139.76791382 -0.26654212 149.88276231 -0.26985329 C155.92271773 -0.27220275 161.96249233 -0.28114989 168.00239944 -0.30631447 C173.68726509 -0.32961701 179.37183113 -0.33381946 185.05673218 -0.32355309 C187.13919446 -0.32305814 189.2216716 -0.32936627 191.30408859 -0.34310913 C211.41013122 -0.4683362 211.41013122 -0.4683362 219.31015015 4.14717102 C220.85702515 4.98248352 220.85702515 4.98248352 222.43515015 5.83467102 C229.1895378 11.26754805 234.91626553 17.66126281 237.31015015 26.14717102 C237.43515015 29.02217102 237.43515015 29.02217102 236.31015015 31.14717102 C234.33981589 32.20442355 232.33171719 33.19152114 230.31015015 34.14717102 C223.64855628 38.93130982 219.4396724 44.89958709 215.12265015 51.77217102 C205.9021105 66.28318424 205.9021105 66.28318424 200.31015015 68.14717102 C193.69781687 69.04375858 193.69781687 69.04375858 190.3543396 66.88349915 C185.3402995 62.45587795 181.71097866 57.81130524 178.18515015 52.14717102 C171.66827989 41.84463874 166.28625945 34.27485918 154.31015015 30.14717102 C145.9309125 28.66599265 139.27222983 30.37113684 132.31015015 35.14717102 C125.23825643 40.3183186 121.07357992 47.93846499 116.69735718 55.35664368 C113.38144773 60.878716 110.21648657 65.19400281 104.31015015 68.14717102 C102.3921814 68.45576477 102.3921814 68.45576477 100.12265015 68.58467102 C99.38659546 68.64525696 98.65054077 68.7058429 97.8921814 68.76826477 C91.44201254 67.21671129 87.54301527 61.46529845 84.24105835 56.08149719 C83.81010864 55.36066956 83.37915894 54.63984192 82.93515015 53.89717102 C76.12203129 42.99265985 69.96388259 34.36508184 57.31015015 30.14717102 C48.08805494 29.2249615 41.59502044 30.976367 34.18515015 36.45967102 C31.93578328 39.09790061 31.93578328 39.09790061 32.49765015 42.77217102 C32.76577515 43.88592102 33.03390015 44.99967102 33.31015015 46.14717102 C33.31015015 50.36241671 31.07392425 52.94580798 28.81015015 56.33467102 C28.38089233 56.98887024 27.95163452 57.64306946 27.5093689 58.3170929 C26.44904976 59.93113424 25.38038861 61.53968983 24.31015015 63.14717102 C23.07136108 62.92158508 21.83257202 62.69599915 20.5562439 62.46357727 C17.18427701 62.02242689 17.18427701 62.02242689 14.0953064 63.36201477 C13.24259155 64.21472961 13.24259155 64.21472961 12.37265015 65.08467102 C9.50376548 67.47634395 7.57437192 68.68849209 3.81015015 68.95967102 C-1.82319682 68.41112218 -4.89659715 65.10239838 -8.68984985 61.14717102 C-10.93134361 58.26408079 -12.88597882 55.24584255 -14.81484985 52.14717102 C-21.81640803 40.8632733 -21.81640803 40.8632733 -32.06484985 32.70967102 C-32.93883423 32.21596008 -33.8128186 31.72224915 -34.71328735 31.21357727 C-35.69168579 30.68570618 -35.69168579 30.68570618 -36.68984985 30.14717102 C-36.30056081 21.19352298 -31.08785184 13.71352367 -24.6859436 7.68232727 C-16.95971479 1.7402374 -9.53411912 -0.00211838 0 0 Z " fill="#F34B59" transform="translate(155.68984985351563,211.8528289794922)"/>
<path d="M0 0 C7.59 0 15.18 0 23 0 C23.99 1.98 24.98 3.96 26 6 C28.12097878 8.12097878 32.89817802 7.18622217 35.83422852 7.20532227 C37.22433136 7.22017166 37.22433136 7.22017166 38.64251709 7.23532104 C41.72128704 7.26703701 44.80007245 7.2917332 47.87890625 7.31640625 C50.00740471 7.33696707 52.13589901 7.3579633 54.26438904 7.37937927 C59.87857704 7.43469004 65.49280243 7.48405947 71.10705566 7.53222656 C76.8311701 7.58237601 82.55522993 7.63809622 88.27929688 7.69335938 C99.51948466 7.80105102 110.75971976 7.90247138 122 8 C118.53231019 16.2465905 115.18449436 21.4609765 106.9296875 25.2734375 C102.49114292 26.9446304 98.37722394 27.14516587 93.66409874 27.13701439 C92.91959491 27.13966622 92.17509107 27.14231804 91.40802652 27.14505023 C88.89939558 27.15274364 86.39081358 27.15330242 83.88217163 27.15390015 C82.07093322 27.15791473 80.2596957 27.16235295 78.44845927 27.1671797 C73.46011097 27.17915134 68.47177235 27.18479502 63.4834125 27.18936086 C58.10763841 27.19531465 52.7318759 27.206925 47.35610962 27.21765137 C34.36837269 27.24217957 21.38063192 27.25680267 8.39287895 27.26971143 C4.72535279 27.27342291 1.05782701 27.27739618 -2.60969877 27.2814641 C-25.3788061 27.30669898 -48.14791402 27.32875463 -70.91703224 27.34119225 C-76.19159574 27.344122 -81.46615921 27.34708365 -86.74072266 27.35009766 C-88.05170805 27.35084371 -89.36269343 27.35158976 -90.71340565 27.35235842 C-111.95544256 27.36501482 -133.19739581 27.39824163 -154.43939359 27.43989949 C-176.24202834 27.48230678 -198.04462024 27.50588585 -219.84729612 27.51111281 C-232.09117266 27.51452817 -244.33491845 27.52629827 -256.57875443 27.55921555 C-267.0051263 27.58720052 -277.43134063 27.59822212 -287.85774715 27.58702008 C-293.17748972 27.58182963 -298.49690225 27.58474572 -303.81659698 27.60948563 C-308.6886933 27.63195481 -313.56022205 27.63125617 -318.43232815 27.61228175 C-320.19281332 27.60947851 -321.9533368 27.6150983 -323.71376033 27.63009469 C-334.41478574 27.71566311 -342.88362683 27.08717576 -351.4375 19.97265625 C-351.953125 19.34230469 -352.46875 18.71195312 -353 18.0625 C-353.804375 17.12083984 -353.804375 17.12083984 -354.625 16.16015625 C-356.28104285 13.5584753 -357.06561339 10.92869306 -358 8 C-356.88187239 7.99910437 -356.88187239 7.99910437 -355.74115634 7.99819064 C-311.59203358 7.9623209 -267.44297934 7.90571928 -223.29391991 7.82207905 C-217.99656537 7.81206122 -212.69921053 7.80221715 -207.40185547 7.79248047 C-206.3472177 7.7905391 -205.29257992 7.78859772 -204.20598343 7.78659752 C-187.11442616 7.75555013 -170.02288233 7.73858923 -152.93130216 7.72680578 C-135.40249206 7.71440839 -117.87375264 7.68693901 -100.34498715 7.64538693 C-89.52295402 7.62021101 -78.70103808 7.6068857 -67.87897524 7.60857043 C-60.46461782 7.60860011 -53.05038003 7.59403102 -45.63606921 7.56783572 C-41.35408547 7.55314285 -37.0723471 7.54502671 -32.79034233 7.55419731 C-28.87321522 7.56244484 -24.9565825 7.55243907 -21.039529 7.52766338 C-19.6195589 7.52194902 -18.19954241 7.5230424 -16.77958593 7.53148755 C-14.85477729 7.54195796 -12.92987791 7.5256123 -11.00512314 7.50780869 C-9.93431181 7.5062898 -8.86350048 7.50477092 -7.76024032 7.50320601 C-4.30045069 6.87246856 -3.14256426 5.73762079 -1 3 C-0.67 2.01 -0.34 1.02 0 0 Z " fill="#BCEBFD" transform="translate(374,470)"/>
<path d="M0 0 C0 24.09 0 48.18 0 73 C-10.89 73 -21.78 73 -33 73 C-33.350625 67.92625 -33.70125 62.8525 -34.0625 57.625 C-34.2637146 55.25562256 -34.2637146 55.25562256 -34.46899414 52.83837891 C-34.97622114 42.59148657 -34.97622114 42.59148657 -32.19873047 38.06347656 C-29.87109375 35.5546875 -29.87109375 35.5546875 -27.37670898 33.23583984 C-23.75408189 29.8279283 -21.50871744 25.75391219 -19 21.5 C-5.88531571 0 -5.88531571 0 0 0 Z " fill="#FAE45A" transform="translate(443,390)"/>
<path d="M0 0 C0.66 0 1.32 0 2 0 C2 23.43 2 46.86 2 71 C-8.56 71 -19.12 71 -30 71 C-30.20727868 65.83594606 -30.38606032 60.68639405 -30.49438477 55.52148438 C-30.53953126 53.76740561 -30.60086921 52.01366349 -30.67895508 50.26074219 C-31.31349246 35.64564584 -31.31349246 35.64564584 -28.11254883 31.63525391 C-25.79930763 30.13089662 -23.5423792 29.05802067 -21 28 C-13.79688732 21.61977813 -8.96313575 13.51321782 -4.06640625 5.34375 C-2 2 -2 2 0 0 Z " fill="#FAE45A" transform="translate(391,260)"/>
<path d="M0 0 C28.25092976 -0.0934815 56.50183631 -0.16399802 84.75288963 -0.20724869 C97.87063139 -0.22786536 110.98827699 -0.25596904 124.10595703 -0.30175781 C135.54061562 -0.34165274 146.97520457 -0.36743932 158.40993083 -0.37635398 C164.46337102 -0.38156417 170.51661197 -0.39379177 176.56998825 -0.42292023 C182.27120233 -0.45013105 187.97213566 -0.45843342 193.67340851 -0.45243073 C195.76232302 -0.45352842 197.85124721 -0.46144828 199.94010544 -0.4768219 C220.11017167 -0.61795055 220.11017167 -0.61795055 228 4 C229.546875 4.8353125 229.546875 4.8353125 231.125 5.6875 C237.87938766 11.12037703 243.60611539 17.51409179 246 26 C246.125 28.875 246.125 28.875 245 31 C243.02966574 32.05725253 241.02156704 33.04435012 239 34 C232.27307795 38.81841613 228.04453917 44.88236854 223.6875 51.8125 C222.48828868 53.69733905 221.28408331 55.57901267 220.07421875 57.45703125 C219.29437622 58.6941687 219.29437622 58.6941687 218.4987793 59.95629883 C217 62 217 62 214 64 C213.9906543 62.93676514 213.98130859 61.87353027 213.97167969 60.77807617 C213.93141102 56.78369246 213.86555582 52.79004952 213.79248047 48.79614258 C213.76448246 47.0768393 213.74316408 45.35741237 213.72900391 43.63793945 C213.62269991 31.45195834 213.03123836 20.7910493 205.5625 10.5625 C205.00691406 9.78003906 204.45132813 8.99757812 203.87890625 8.19140625 C200.61461614 4.38419886 198.42210551 2.19560799 193.30813885 1.49219131 C191.8455674 1.46814176 190.38253685 1.46592257 188.91984558 1.48101807 C188.11111364 1.47351681 187.3023817 1.46601556 186.46914274 1.458287 C183.76196343 1.43800345 181.05562114 1.44611367 178.34838867 1.45410156 C176.40678071 1.44536691 174.46517995 1.4348815 172.52359009 1.42277527 C167.25333597 1.39488156 161.98331633 1.39151133 156.71299911 1.39249516 C151.20495951 1.38936897 145.69702597 1.36375687 140.18904114 1.34051514 C129.7592067 1.29992914 119.32943483 1.27960829 108.89953357 1.26654124 C97.02534308 1.25068003 85.15125919 1.21226808 73.27713048 1.17194796 C48.85145609 1.08951339 24.42578458 1.03544348 0 1 C0 0.67 0 0.34 0 0 Z " fill="#E33443" transform="translate(147,212)"/>
<path d="M0 0 C14.77991216 -0.64114675 26.75350651 -1.00289602 38.875 8.5625 C43.69593142 13.17268032 46.72722398 18.76100699 49 25 C49 26.32 49 27.64 49 29 C48.45472656 29.20753906 47.90945313 29.41507812 47.34765625 29.62890625 C34.66091163 34.81203781 28.36763655 43.0395214 21.20751953 54.30175781 C19.95171088 56.06791329 18.57173804 57.51289838 17 59 C16.99589111 58.03288086 16.99178223 57.06576172 16.98754883 56.06933594 C16.96549973 52.42331238 16.91095298 48.77832913 16.84741211 45.1328125 C16.82445366 43.56585793 16.80988931 41.99875391 16.80444336 40.43164062 C16.73905255 24.69760552 13.07764961 13.22173929 1.78515625 1.75 C1.19605469 1.1725 0.60695313 0.595 0 0 Z " fill="#E93342" transform="translate(393,346)"/>
<path d="M0 0 C0.66 0 1.32 0 2 0 C15.49901857 22.44375661 15.49901857 22.44375661 14 32 C11.94618797 35.81422234 9.89453363 39.00010435 6 41 C1.26920184 42.24827944 -1.90211541 42.5286111 -6.375 40.375 C-10.2670572 36.85361491 -12.13861314 34.20613996 -12.5 28.9375 C-12.11243057 18.75958968 -5.72820829 8.13780724 0 0 Z " fill="#F7D460" transform="translate(255,23)"/>
<path d="M0 0 C13.2 0 26.4 0 40 0 C40 5.28 40 10.56 40 16 C26.8 16 13.6 16 0 16 C0 10.72 0 5.44 0 0 Z " fill="#8BDAF8" transform="translate(236,181)"/>
<path d="M0 0 C13.2 0 26.4 0 40 0 C40 4.95 40 9.9 40 15 C26.8 15 13.6 15 0 15 C0 10.05 0 5.1 0 0 Z " fill="#B7E5F7" transform="translate(236,151)"/>
<path d="M0 0 C13.2 0 26.4 0 40 0 C40 4.95 40 9.9 40 15 C26.8 15 13.6 15 0 15 C0 10.05 0 5.1 0 0 Z " fill="#8EDEFD" transform="translate(236,121)"/>
<path d="M0 0 C5.35896777 2.67948389 9.73802051 6.98517521 13 12 C13.64178588 15.85071526 13.51757465 17.84306842 11.9375 21.375 C8.99108373 23.84618784 6.8063221 24 3 24 C-2.25621139 21.3718943 -8.31005583 16.37988834 -11 11 C-11.35519903 7.16385043 -11.54724594 4.85370366 -9.4375 1.5625 C-6.02780394 -0.6232026 -3.987831 -0.55004566 0 0 Z " fill="#050505" transform="translate(384,131)"/>
<path d="M0 0 C3.11503851 2.13134214 3.86150009 3.46730802 4.8125 7.125 C3.38380294 13.938786 -1.97805718 18.91449755 -7.609375 22.80078125 C-10.86946327 24.43615233 -12.56165941 24.09734274 -16 23 C-19.11503851 20.86865786 -19.86150009 19.53269198 -20.8125 15.875 C-19.38380294 9.061214 -14.02194282 4.08550245 -8.390625 0.19921875 C-5.13053673 -1.43615233 -3.43834059 -1.09734274 0 0 Z " fill="#050505" transform="translate(332,132)"/>
<path d="M0 0 C2.4375 2.125 2.4375 2.125 4 5 C3.88134176 10.03110938 2.87035506 12.87640294 -0.70507812 16.4765625 C-1.19427734 16.93804687 -1.68347656 17.39953125 -2.1875 17.875 C-2.65736328 18.3596875 -3.12722656 18.844375 -3.61132812 19.34375 C-6.90023831 22.55638259 -9.40266655 23.84037037 -14 24 C-18.56521739 21.86956522 -18.56521739 21.86956522 -20 19 C-20.57777087 15.38893203 -20.67346531 12.99354634 -18.578125 9.90234375 C-16.78660144 7.85434139 -14.93202627 5.91537088 -13 4 C-12.2575 3.195625 -11.515 2.39125 -10.75 1.5625 C-7.26326128 -1.55065957 -4.28103399 -1.22315257 0 0 Z " fill="#050505" transform="translate(136,79)"/>
<path d="M0 0 C3.6875 0.8125 3.6875 0.8125 6.1875 2.3125 C7.81760087 5.02933478 8.6656231 7.24182929 8.55078125 10.4453125 C6.55932675 15.90604295 -0.11948463 22.21599232 -5.3125 24.8125 C-8.87119346 25.19931451 -10.65517853 25.27440157 -13.625 23.1875 C-15.70994561 20.25313211 -16.23907532 18.4103095 -16.3125 14.8125 C-13.15445961 8.69629519 -7.48160516 0.33625192 0 0 Z " fill="#050505" transform="translate(388.3125,69.1875)"/>
<path d="M0 0 C2.73828125 2.21484375 2.73828125 2.21484375 5.3125 4.9375 C6.17488281 5.83339844 7.03726562 6.72929688 7.92578125 7.65234375 C10.52716377 10.59665805 10.95666245 11.41494302 11.25 15.375 C11 19 11 19 9.9375 21.375 C6.86484658 23.95206416 5.00303918 24.19687078 1 24 C-2.09596999 22.06950134 -4.49119545 19.63019832 -7 17 C-7.61875 16.4121875 -8.2375 15.824375 -8.875 15.21875 C-11.9699446 12.06649161 -12.98647564 10.81146166 -13.0625 6.25 C-11.60994264 1.80688337 -11.60994264 1.80688337 -9 0 C-5.37199153 -1.20933616 -3.6743784 -1.01787128 0 0 Z " fill="#050505" transform="translate(324,71)"/>
<path d="M0 0 C3.9375 0.625 3.9375 0.625 6.4375 2.75 C8.2815701 6.2844677 8.78432469 7.69881282 7.9375 11.625 C5.89448286 14.59878999 3.50469308 17.09929691 0.9375 19.625 C0.41285156 20.15996094 -0.11179688 20.69492187 -0.65234375 21.24609375 C-3.07206061 23.51177028 -4.86623589 24.5849461 -8.125 25.25 C-12.1549485 24.39256415 -13.63179333 22.91360314 -16.0625 19.625 C-16.8125 16.8125 -16.8125 16.8125 -16.0625 13.625 C-13.98834459 10.68998343 -11.56982281 8.19026515 -9.0625 5.625 C-8.258125 4.635 -7.45375 3.645 -6.625 2.625 C-3.99940692 0.57575662 -3.18324449 0.2231795 0 0 Z " fill="#060606" transform="translate(192.0625,16.375)"/>
<path d="M0 0 C3.02243519 2.00538 5.48135987 4.40248805 8 7 C8.54527344 7.51304688 9.09054688 8.02609375 9.65234375 8.5546875 C12.38596649 11.3564615 13 12.73307682 13 16.6875 C11.55760369 21.46543779 11.55760369 21.46543779 9 23 C5.8125 24.125 5.8125 24.125 2 24 C-1.04967771 22.032466 -3.46140848 19.57576754 -6 17 C-6.99 16.195625 -7.98 15.39125 -9 14.5625 C-11.06554262 11.91602352 -11.37919025 11.142464 -11.5625 7.9375 C-11 4 -11 4 -9.4375 1.5 C-5.89383548 -0.68071663 -4.10900306 -0.75331723 0 0 Z " fill="#050505" transform="translate(188,78)"/>
<path d="M0 0 C2.58657108 1.4835792 4.47380546 3.39416171 6.5 5.5625 C7.03625 6.07619141 7.5725 6.58988281 8.125 7.11914062 C11.02833969 10.10024835 11.93913522 11.48692056 12.4453125 15.75390625 C12 19 12 19 10.375 21.375 C7.39312393 23.415231 5.62548925 24 2 24 C-3.25736769 21.31538671 -9.29811977 16.40376045 -12 11 C-12.35173852 7.20122401 -12.52701444 4.85639847 -10.5 1.5625 C-7.05233611 -0.59228993 -3.91328742 -0.74259807 0 0 Z " fill="#050505" transform="translate(127,18)"/>
<path d="M0 0 C3.87605099 0.72675956 5.32283355 1.64478947 8 4.5625 C8.72377584 7.74278471 8.65312305 10.8147659 8.5625 14.0625 C8.57345703 14.91714844 8.58441406 15.77179687 8.59570312 16.65234375 C8.52309205 22.85817067 8.52309205 22.85817067 6.1171875 26.09765625 C3.59221894 27.84463634 2.08030753 28.48737055 -1 28.5625 C-4.48634601 26.94094371 -5.84302194 25.79796708 -8 22.5625 C-8.27487822 19.72112728 -8.41589299 17.03002275 -8.4375 14.1875 C-8.47037109 13.43210937 -8.50324219 12.67671875 -8.53710938 11.8984375 C-8.57798749 7.64711333 -8.36434155 6.03024399 -5.66015625 2.55859375 C-3 0.5625 -3 0.5625 0 0 Z " fill="#050505" transform="translate(157,2.4375)"/>
<path d="M0 0 C0.81597656 -0.02900391 1.63195312 -0.05800781 2.47265625 -0.08789062 C8.44611493 -0.15123073 8.44611493 -0.15123073 11.6640625 2.046875 C13.2894441 4.56752026 13.66528607 5.89886622 13.625 8.875 C13.6353125 9.63941406 13.645625 10.40382813 13.65625 11.19140625 C13.125 13.3125 13.125 13.3125 11.65625 15.06640625 C7.85246627 16.93894793 4.30704867 16.7476253 0.125 16.6875 C-0.68195313 16.69910156 -1.48890625 16.71070312 -2.3203125 16.72265625 C-5.82680825 16.70529736 -8.2394482 16.64564416 -11.37890625 15 C-13.79647401 12.27313506 -13.81353622 9.8773994 -13.875 6.3125 C-10.77307549 -0.48219177 -6.85610485 0.08047071 0 0 Z " fill="#050505" transform="translate(310.875,104.6875)"/>
<path d="M0 0 C0.76828125 -0.020625 1.5365625 -0.04125 2.328125 -0.0625 C5.75989675 -0.08624929 8.02970601 -0.06311527 11.10546875 1.5546875 C13.54876004 4.28062174 13.56325952 6.66905226 13.625 10.25 C12.27937601 13.19755732 11.53945456 14.79277272 8.625 16.25 C5.66937304 16.48049806 2.77190885 16.61997612 -0.1875 16.6875 C-0.99509766 16.73326172 -1.80269531 16.77902344 -2.63476562 16.82617188 C-8.45186146 16.93574862 -8.45186146 16.93574862 -11.06396484 14.99536133 C-13.45022537 12.28484862 -14.375 10.70539569 -14.375 7.0625 C-11.81266003 -0.14408116 -6.86593438 0.04562083 0 0 Z " fill="#050505" transform="translate(397.375,103.75)"/>
<path d="M0 0 C0.70769531 -0.03738281 1.41539063 -0.07476562 2.14453125 -0.11328125 C6.13033906 -0.1800825 7.91331666 0.21116099 11.09765625 2.67578125 C13.125 5.375 13.125 5.375 13.6875 8.9375 C13.125 12.375 13.125 12.375 11.68359375 14.55859375 C7.8157966 17.30443447 4.2534594 16.95877302 -0.375 16.875 C-1.65697266 16.89820313 -1.65697266 16.89820313 -2.96484375 16.921875 C-6.90741613 16.89727236 -9.1631401 16.87774428 -12.44140625 14.5625 C-14.53649695 11.36563135 -14.34217429 9.11239434 -13.875 5.375 C-10.73402623 -0.30866682 -5.91484202 0.1172311 0 0 Z " fill="#050505" transform="translate(114.875,51.625)"/>
<path d="M0 0 C0.71607422 -0.01224609 1.43214844 -0.02449219 2.16992188 -0.03710938 C5.93020596 -0.04756429 8.93794515 -0.04432489 12.0625 2.1875 C13.62721233 5.31692465 13.75951958 8.79832223 13.0625 12.1875 C11.63671875 14.41015625 11.63671875 14.41015625 9.0625 16.1875 C5.88524959 16.8002744 2.78993888 16.79137742 -0.4375 16.75 C-1.29214844 16.77384766 -2.14679688 16.79769531 -3.02734375 16.82226562 C-9.25839811 16.80768437 -9.25839811 16.80768437 -12.50390625 13.84375 C-14.24467446 10.61834841 -14.4760586 8.80353632 -13.9375 5.1875 C-10.6854601 -0.54228459 -5.99358192 0.00536579 0 0 Z " fill="#060606" transform="translate(200.9375,50.8125)"/>
<path d="M0 0 C3.1850357 1.76015131 3.83296972 2.49890916 5 6 C5.14675735 8.45536342 5.22100698 10.91542552 5.25 13.375 C5.27578125 14.68210937 5.3015625 15.98921875 5.328125 17.3359375 C4.98650077 21.15074144 4.31641599 22.99765501 2 26 C-1.09173752 27.54586876 -3.59429552 27.29359521 -7 27 C-9.1953125 25.57421875 -9.1953125 25.57421875 -11 23 C-11.59080158 19.8226403 -11.55833945 16.72325474 -11.5 13.5 C-11.51546875 12.64535156 -11.5309375 11.79070312 -11.546875 10.91015625 C-11.52227236 6.96758387 -11.50274428 4.7118599 -9.1875 1.43359375 C-5.99063135 -0.66149695 -3.73739434 -0.46717429 0 0 Z " fill="#050505" transform="translate(357,56)"/>
<path d="M0 0 C2.4375 1.625 2.4375 1.625 4 4 C4.5625 6.9375 4.5625 6.9375 4 10 C1.9375 12.9375 1.9375 12.9375 -1 15 C-4.8427383 15.06625411 -6.99200716 14.81899419 -10 12.375 C-11.45635054 8.91616747 -10.91305869 6.58701629 -10 3 C-7.67133148 -1.01048467 -4.26353269 -0.52359173 0 0 Z " fill="#13090A" transform="translate(163,250)"/>
<path d="M0 0 C2.66106976 2.38813953 3.77849624 4.01553885 4.5625 7.5 C3.70956484 11.29082295 2.11459264 12.74689043 -1 15 C-4.85210127 15.06641554 -6.99848005 14.87229157 -9.9375 12.3125 C-11.33817538 9.26397123 -11.4842732 7.32073048 -11 4 C-8.07075041 -0.45245938 -5.11843736 -0.822606 0 0 Z " fill="#12090A" transform="translate(356,250)"/>
<path d="M0 0 C1.9375 1.1875 1.9375 1.1875 3 3 C3.56861912 6.73663996 3.24892554 8.54197701 1.4375 11.875 C-1 14 -1 14 -4.5625 14.5 C-8.18389446 13.97325172 -8.89618568 13.80508576 -11 11 C-11.61358021 7.94868221 -11.50154785 5.0662812 -11 2 C-7.99960012 -2.08054384 -4.54784195 -1.1576325 0 0 Z " fill="#0F0809" transform="translate(390,392)"/>
<path d="M0 0 C2.375 1.5625 2.375 1.5625 4 4 C4.56783945 7.97487617 4.62340519 10.06489221 2.375 13.4375 C-0.71685231 15.47161336 -2.36367425 15.60605429 -6 15 C-8.375 13.4375 -8.375 13.4375 -10 11 C-10.56783945 7.02512383 -10.62340519 4.93510779 -8.375 1.5625 C-5.28314769 -0.47161336 -3.63632575 -0.60605429 0 0 Z " fill="#0E0808" transform="translate(259,391)"/>
<path d="M0 0 C2.375 1.5 2.375 1.5 4 4 C4.58428517 6.9631605 4.39344818 8.90159561 4 12 C1.82200662 14.68060724 0.38998695 14.93500217 -3 15.5 C-6 15 -6 15 -8.375 12.875 C-10.28071139 9.50335677 -10.64850195 7.80994895 -10 4 C-7.21921757 -0.06422047 -4.81255755 -0.80209293 0 0 Z " fill="#0E0809" transform="translate(129,391)"/>
<path d="M0 0 C3.5625 0.5 3.5625 0.5 6 2.125 C8.06041771 5.25683492 8.2392545 6.81544773 7.5625 10.5 C5.4375 13.4375 5.4375 13.4375 2.5625 15.5 C-0.99703149 15.57119063 -2.65869455 15.2009249 -5.3125 12.8125 C-6.78170486 9.79246779 -6.85296043 7.82368343 -6.4375 4.5 C-4.82303773 0.89120198 -3.95737975 0.57561887 0 0 Z " fill="#0C0708" transform="translate(255.4375,249.5)"/>
</svg>
